<svg viewBox="0 0 1400 1000" xmlns="http://www.w3.org/2000/svg">
  <!-- Title -->
  <text x="700" y="30" text-anchor="middle" font-size="24" font-weight="bold">Application Reference Model</text>
  
  <!-- Customer Facing Layer -->
  <g id="customer-layer">
    <rect x="50" y="70" width="1300" height="150" fill="#e0f2fe" stroke="#0284c7" stroke-width="2" rx="10"/>
    <text x="700" y="95" text-anchor="middle" font-size="16" font-weight="bold">Customer Facing Applications</text>
    
    <rect x="100" y="120" width="200" height="70" fill="#0ea5e9" rx="5"/>
    <text x="200" y="145" text-anchor="middle" fill="white" font-size="12" font-weight="bold">Web Application</text>
    <text x="200" y="165" text-anchor="middle" fill="white" font-size="10">React/Next.js SPA</text>
    <text x="200" y="180" text-anchor="middle" fill="white" font-size="10">Customer Portal</text>
    
    <rect x="350" y="120" width="200" height="70" fill="#0ea5e9" rx="5"/>
    <text x="450" y="145" text-anchor="middle" fill="white" font-size="12" font-weight="bold">Mobile Application</text>
    <text x="450" y="165" text-anchor="middle" fill="white" font-size="10">iOS/Android Native</text>
    <text x="450" y="180" text-anchor="middle" fill="white" font-size="10">React Native</text>
    
    <rect x="600" y="120" width="200" height="70" fill="#0ea5e9" rx="5"/>
    <text x="700" y="145" text-anchor="middle" fill="white" font-size="12" font-weight="bold">Public API</text>
    <text x="700" y="165" text-anchor="middle" fill="white" font-size="10">REST/GraphQL</text>
    <text x="700" y="180" text-anchor="middle" fill="white" font-size="10">Developer Portal</text>
    
    <rect x="850" y="120" width="200" height="70" fill="#0ea5e9" rx="5"/>
    <text x="950" y="145" text-anchor="middle" fill="white" font-size="12" font-weight="bold">Partner Portal</text>
    <text x="950" y="165" text-anchor="middle" fill="white" font-size="10">B2B Integration</text>
    <text x="950" y="180" text-anchor="middle" fill="white" font-size="10">Vendor Management</text>
    
    <rect x="1100" y="120" width="200" height="70" fill="#0ea5e9" rx="5"/>
    <text x="1200" y="145" text-anchor="middle" fill="white" font-size="12" font-weight="bold">Marketing Site</text>
    <text x="1200" y="165" text-anchor="middle" fill="white" font-size="10">CMS-based</text>
    <text x="1200" y="180" text-anchor="middle" fill="white" font-size="10">Landing Pages</text>
  </g>
  
  <!-- Internal Applications Layer -->
  <g id="internal-layer">
    <rect x="50" y="250" width="1300" height="150" fill="#fef3c7" stroke="#f59e0b" stroke-width="2" rx="10"/>
    <text x="700" y="275" text-anchor="middle" font-size="16" font-weight="bold">Internal Applications</text>
    
    <rect x="100" y="300" width="180" height="70" fill="#f97316" rx="5"/>
    <text x="190" y="325" text-anchor="middle" fill="white" font-size="12" font-weight="bold">Admin Portal</text>
    <text x="190" y="345" text-anchor="middle" fill="white" font-size="10">Operations Mgmt</text>
    <text x="190" y="360" text-anchor="middle" fill="white" font-size="10">User Support</text>
    
    <rect x="320" y="300" width="180" height="70" fill="#f97316" rx="5"/>
    <text x="410" y="325" text-anchor="middle" fill="white" font-size="12" font-weight="bold">Employee Portal</text>
    <text x="410" y="345" text-anchor="middle" fill="white" font-size="10">HR Self-Service</text>
    <text x="410" y="360" text-anchor="middle" fill="white" font-size="10">Time & Expense</text>
    
    <rect x="540" y="300" width="180" height="70" fill="#f97316" rx="5"/>
    <text x="630" y="325" text-anchor="middle" fill="white" font-size="12" font-weight="bold">Developer Portal</text>
    <text x="630" y="345" text-anchor="middle" fill="white" font-size="10">Backstage</text>
    <text x="630" y="360" text-anchor="middle" fill="white" font-size="10">Service Catalog</text>
    
    <rect x="760" y="300" width="180" height="70" fill="#f97316" rx="5"/>
    <text x="850" y="325" text-anchor="middle" fill="white" font-size="12" font-weight="bold">Analytics Portal</text>
    <text x="850" y="345" text-anchor="middle" fill="white" font-size="10">BI Dashboards</text>
    <text x="850" y="360" text-anchor="middle" fill="white" font-size="10">Reports</text>
    
    <rect x="980" y="300" width="180" height="70" fill="#f97316" rx="5"/>
    <text x="1070" y="325" text-anchor="middle" fill="white" font-size="12" font-weight="bold">Finance Portal</text>
    <text x="1070" y="345" text-anchor="middle" fill="white" font-size="10">Billing/Invoicing</text>
    <text x="1070" y="360" text-anchor="middle" fill="white" font-size="10">Revenue Mgmt</text>
    
    <rect x="1200" y="300" width="120" height="70" fill="#f97316" rx="5"/>
    <text x="1260" y="325" text-anchor="middle" fill="white" font-size="12" font-weight="bold">Ops Tools</text>
    <text x="1260" y="345" text-anchor="middle" fill="white" font-size="10">Monitoring</text>
    <text x="1260" y="360" text-anchor="middle" fill="white" font-size="10">Incident Mgmt</text>
  </g>
  
  <!-- Business Services Layer -->
  <g id="business-services">
    <rect x="50" y="430" width="1300" height="180" fill="#dcfce7" stroke="#16a34a" stroke-width="2" rx="10"/>
    <text x="700" y="455" text-anchor="middle" font-size="16" font-weight="bold">Business Services</text>
    
    <rect x="100" y="480" width="160" height="100" fill="#22c55e" rx="5"/>
    <text x="180" y="505" text-anchor="middle" fill="white" font-size="11" font-weight="bold">Customer Service</text>
    <text x="180" y="525" text-anchor="middle" fill="white" font-size="9">Account Mgmt</text>
    <text x="180" y="540" text-anchor="middle" fill="white" font-size="9">Profile Service</text>
    <text x="180" y="555" text-anchor="middle" fill="white" font-size="9">Preferences</text>
    <text x="180" y="570" text-anchor="middle" fill="white" font-size="9">Support Tickets</text>
    
    <rect x="290" y="480" width="160" height="100" fill="#22c55e" rx="5"/>
    <text x="370" y="505" text-anchor="middle" fill="white" font-size="11" font-weight="bold">Order Service</text>
    <text x="370" y="525" text-anchor="middle" fill="white" font-size="9">Cart Management</text>
    <text x="370" y="540" text-anchor="middle" fill="white" font-size="9">Order Processing</text>
    <text x="370" y="555" text-anchor="middle" fill="white" font-size="9">Fulfillment</text>
    <text x="370" y="570" text-anchor="middle" fill="white" font-size="9">Returns</text>
    
    <rect x="480" y="480" width="160" height="100" fill="#22c55e" rx="5"/>
    <text x="560" y="505" text-anchor="middle" fill="white" font-size="11" font-weight="bold">Payment Service</text>
    <text x="560" y="525" text-anchor="middle" fill="white" font-size="9">Payment Gateway</text>
    <text x="560" y="540" text-anchor="middle" fill="white" font-size="9">Billing</text>
    <text x="560" y="555" text-anchor="middle" fill="white" font-size="9">Invoicing</text>
    <text x="560" y="570" text-anchor="middle" fill="white" font-size="9">Subscriptions</text>
    
    <rect x="670" y="480" width="160" height="100" fill="#22c55e" rx="5"/>
    <text x="750" y="505" text-anchor="middle" fill="white" font-size="11" font-weight="bold">Product Service</text>
    <text x="750" y="525" text-anchor="middle" fill="white" font-size="9">Catalog Mgmt</text>
    <text x="750" y="540" text-anchor="middle" fill="white" font-size="9">Inventory</text>
    <text x="750" y="555" text-anchor="middle" fill="white" font-size="9">Pricing</text>
    <text x="750" y="570" text-anchor="middle" fill="white" font-size="9">Recommendations</text>
    
    <rect x="860" y="480" width="160" height="100" fill="#22c55e" rx="5"/>
    <text x="940" y="505" text-anchor="middle" fill="white" font-size="11" font-weight="bold">Marketing Service</text>
    <text x="940" y="525" text-anchor="middle" fill="white" font-size="9">Campaigns</text>
    <text x="940" y="540" text-anchor="middle" fill="white" font-size="9">Email/SMS</text>
    <text x="940" y="555" text-anchor="middle" fill="white" font-size="9">Promotions</text>
    <text x="940" y="570" text-anchor="middle" fill="white" font-size="9">Loyalty</text>
    
    <rect x="1050" y="480" width="160" height="100" fill="#22c55e" rx="5"/>
    <text x="1130" y="505" text-anchor="middle" fill="white" font-size="11" font-weight="bold">Analytics Service</text>
    <text x="1130" y="525" text-anchor="middle" fill="white" font-size="9">Event Tracking</text>
    <text x="1130" y="540" text-anchor="middle" fill="white" font-size="9">Metrics</text>
    <text x="1130" y="555" text-anchor="middle" fill="white" font-size="9">Reporting</text>
    <text x="1130" y="570" text-anchor="middle" fill="white" font-size="9">ML/AI Insights</text>
  </g>
  
  <!-- Platform Services Layer -->
  <g id="platform-services">
    <rect x="50" y="640" width="1300" height="150" fill="#ede9fe" stroke="#7c3aed" stroke-width="2" rx="10"/>
    <text x="700" y="665" text-anchor="middle" font-size="16" font-weight="bold">Platform Services</text>
    
    <rect x="100" y="690" width="150" height="70" fill="#8b5cf6" rx="5"/>
    <text x="175" y="715" text-anchor="middle" fill="white" font-size="11" font-weight="bold">Identity Service</text>
    <text x="175" y="735" text-anchor="middle" fill="white" font-size="9">Auth/SSO</text>
    <text x="175" y="750" text-anchor="middle" fill="white" font-size="9">User Mgmt</text>
    
    <rect x="280" y="690" width="150" height="70" fill="#8b5cf6" rx="5"/>
    <text x="355" y="715" text-anchor="middle" fill="white" font-size="11" font-weight="bold">API Gateway</text>
    <text x="355" y="735" text-anchor="middle" fill="white" font-size="9">Rate Limiting</text>
    <text x="355" y="750" text-anchor="middle" fill="white" font-size="9">API Security</text>
    
    <rect x="460" y="690" width="150" height="70" fill="#8b5cf6" rx="5"/>
    <text x="535" y="715" text-anchor="middle" fill="white" font-size="11" font-weight="bold">Messaging</text>
    <text x="535" y="735" text-anchor="middle" fill="white" font-size="9">Event Bus</text>
    <text x="535" y="750" text-anchor="middle" fill="white" font-size="9">Notifications</text>
    
    <rect x="640" y="690" width="150" height="70" fill="#8b5cf6" rx="5"/>
    <text x="715" y="715" text-anchor="middle" fill="white" font-size="11" font-weight="bold">Workflow Engine</text>
    <text x="715" y="735" text-anchor="middle" fill="white" font-size="9">Orchestration</text>
    <text x="715" y="750" text-anchor="middle" fill="white" font-size="9">Automation</text>
    
    <rect x="820" y="690" width="150" height="70" fill="#8b5cf6" rx="5"/>
    <text x="895" y="715" text-anchor="middle" fill="white" font-size="11" font-weight="bold">File Storage</text>
    <text x="895" y="735" text-anchor="middle" fill="white" font-size="9">Object Storage</text>
    <text x="895" y="750" text-anchor="middle" fill="white" font-size="9">CDN</text>
    
    <rect x="1000" y="690" width="150" height="70" fill="#8b5cf6" rx="5"/>
    <text x="1075" y="715" text-anchor="middle" fill="white" font-size="11" font-weight="bold">Search Service</text>
    <text x="1075" y="735" text-anchor="middle" fill="white" font-size="9">Full-text Search</text>
    <text x="1075" y="750" text-anchor="middle" fill="white" font-size="9">Faceted Search</text>
    
    <rect x="1180" y="690" width="120" height="70" fill="#8b5cf6" rx="5"/>
    <text x="1240" y="715" text-anchor="middle" fill="white" font-size="11" font-weight="bold">Cache</text>
    <text x="1240" y="735" text-anchor="middle" fill="white" font-size="9">Redis</text>
    <text x="1240" y="750" text-anchor="middle" fill="white" font-size="9">Session Store</text>
  </g>
  
  <!-- Data Layer -->
  <g id="data-layer">
    <rect x="50" y="820" width="1300" height="150" fill="#fee2e2" stroke="#dc2626" stroke-width="2" rx="10"/>
    <text x="700" y="845" text-anchor="middle" font-size="16" font-weight="bold">Data Services</text>
    
    <rect x="100" y="870" width="180" height="70" fill="#ef4444" rx="5"/>
    <text x="190" y="895" text-anchor="middle" fill="white" font-size="11" font-weight="bold">Operational DB</text>
    <text x="190" y="915" text-anchor="middle" fill="white" font-size="9">PostgreSQL/MySQL</text>
    <text x="190" y="930" text-anchor="middle" fill="white" font-size="9">MongoDB</text>
    
    <rect x="320" y="870" width="180" height="70" fill="#ef4444" rx="5"/>
    <text x="410" y="895" text-anchor="middle" fill="white" font-size="11" font-weight="bold">Data Warehouse</text>
    <text x="410" y="915" text-anchor="middle" fill="white" font-size="9">Snowflake/BigQuery</text>
    <text x="410" y="930" text-anchor="middle" fill="white" font-size="9">Analytics DB</text>
    
    <rect x="540" y="870" width="180" height="70" fill="#ef4444" rx="5"/>
    <text x="630" y="895" text-anchor="middle" fill="white" font-size="11" font-weight="bold">Data Lake</text>
    <text x="630" y="915" text-anchor="middle" fill="white" font-size="9">S3/GCS</text>
    <text x="630" y="930" text-anchor="middle" fill="white" font-size="9">Raw Data Store</text>
    
    <rect x="760" y="870" width="180" height="70" fill="#ef4444" rx="5"/>
    <text x="850" y="895" text-anchor="middle" fill="white" font-size="11" font-weight="bold">ETL Pipeline</text>
    <text x="850" y="915" text-anchor="middle" fill="white" font-size="9">Fivetran/Airbyte</text>
    <text x="850" y="930" text-anchor="middle" fill="white" font-size="9">dbt</text>
    
    <rect x="980" y="870" width="180" height="70" fill="#ef4444" rx="5"/>
    <text x="1070" y="895" text-anchor="middle" fill="white" font-size="11" font-weight="bold">Stream Processing</text>
    <text x="1070" y="915" text-anchor="middle" fill="white" font-size="9">Kafka/Kinesis</text>
    <text x="1070" y="930" text-anchor="middle" fill="white" font-size="9">Real-time Data</text>
    
    <rect x="1200" y="870" width="120" height="70" fill="#ef4444" rx="5"/>
    <text x="1260" y="895" text-anchor="middle" fill="white" font-size="11" font-weight="bold">ML Platform</text>
    <text x="1260" y="915" text-anchor="middle" fill="white" font-size="9">SageMaker</text>
    <text x="1260" y="930" text-anchor="middle" fill="white" font-size="9">Databricks</text>
  </g>
  
  <!-- Arrows showing data flow -->
  <path d="M 700 220 L 700 250" stroke="#666" stroke-width="2" marker-end="url(#arrowhead)" stroke-dasharray="5,5"/>
  <path d="M 700 400 L 700 430" stroke="#666" stroke-width="2" marker-end="url(#arrowhead)" stroke-dasharray="5,5"/>
  <path d="M 700 610 L 700 640" stroke="#666" stroke-width="2" marker-end="url(#arrowhead)" stroke-dasharray="5,5"/>
  <path d="M 700 790 L 700 820" stroke="#666" stroke-width="2" marker-end="url(#arrowhead)" stroke-dasharray="5,5"/>
  
  <!-- Arrow marker -->
  <defs>
    <marker id="arrowhead" markerWidth="10" markerHeight="7" refX="9" refY="3.5" orient="auto">
      <polygon points="0 0, 10 3.5, 0 7" fill="#666"/>
    </marker>
  </defs>
</svg>